<svg xmlns="http://www.w3.org/2000/svg" fill="none" viewBox="0 0 100 100"><path fill="#25C7B7" d="m59.801 64.717-24.525-5.125a6 6 0 0 1-.342.577l22.327 32.569 1.347-1.346 3.798-23.62a4.47 4.47 0 0 1-2.605-3.055m-8.946-32.06A5.14 5.14 0 0 1 46.544 35c-.278 0-.549-.028-.814-.07l-11.185 17.5 29.882-12.86c-.01-.12-.036-.232-.036-.356 0-.251.034-.495.075-.736l-13.611-5.82m.812-3.188 14.478 6.19c.462-.36.99-.627 1.554-.784l2.38-14.797-9.067-9.066L50.808 26.98c.5.74.796 1.598.86 2.49zm30.338 2.536-9.086-9.088-1.975 12.269c.5.252.95.594 1.326 1.01zm-21.77 29.48a4.43 4.43 0 0 1 3.551-2.282l2.61-16.23a4.5 4.5 0 0 1-.568-.465L35.775 55.442c.076.314.13.635.154.967zM84.48 34.482l-10.513 4.523 25.938 11.09.093-.094zm-18.786 33.34-3.16 19.641L80.88 69.117l-13.214-2.76a4.44 4.44 0 0 1-1.972 1.463m-35.658-5.05c-.664 0-1.3-.115-1.895-.316l-6.094 9.536-2.355-2.353 5.772-9.032a6 6 0 0 1-.398-.553L14.61 64.555l-2.479-2.479 11.445-4.926-20.691-4.32L.055 50l.895-.895 23.86 4.98c.275-.52.627-.996 1.043-1.412L14.272 35.781l2.34-2.339 12.099 17.65a6 6 0 0 1 1.325-.154c.51 0 1.006.071 1.48.193l11.321-17.715a5.13 5.13 0 0 1-1.436-3.561c0-.407.052-.8.14-1.178l-14.124-6.04 2.478-2.477 13.382 5.723a5.13 5.13 0 0 1 4.943-.886L58.659 8.659 50 0 0 50l50 50 4.92-4.92-22.494-32.816a5.9 5.9 0 0 1-2.39.506m39.542-19.098-2.654 16.499a4.44 4.44 0 0 1 1.639 3.052l15.067 3.145 13.796-13.797-24.903-10.647a4.5 4.5 0 0 1-2.945 1.749"/></svg>