<svg xmlns="http://www.w3.org/2000/svg" fill="none" viewBox="0 0 100 100"><path fill="#001E36" d="M17.708 1h64.584C92.083 1 100 8.917 100 18.708v62.084c0 9.791-7.917 17.708-17.708 17.708H17.708C7.917 98.5 0 90.583 0 80.792V18.708C0 8.917 7.917 1 17.708 1"/><path fill="#31A8FF" d="M22.5 69.375V26.5c0-.292.125-.458.417-.458.708 0 1.375 0 2.333-.042 1-.042 2.042-.042 3.167-.083 1.125-.042 2.333-.042 3.625-.084 1.291-.041 2.541-.041 3.791-.041 3.417 0 6.25.416 8.584 1.291 2.083.709 4 1.875 5.583 3.417a13.3 13.3 0 0 1 3.042 4.75A16 16 0 0 1 54 40.667q0 5.374-2.5 8.875c-1.667 2.333-4 4.083-6.708 5.083-2.834 1.042-5.959 1.417-9.375 1.417-1 0-1.667 0-2.084-.042-.416-.042-1-.042-1.791-.042v13.375c.041.292-.167.542-.459.584H23c-.333 0-.5-.167-.5-.542m9.083-35.292v14c.584.042 1.125.084 1.625.084h2.209c1.625 0 3.25-.25 4.791-.75 1.334-.375 2.5-1.167 3.417-2.209.875-1.041 1.292-2.458 1.292-4.291a6.86 6.86 0 0 0-.959-3.709c-.708-1.083-1.708-1.916-2.916-2.375-1.542-.625-3.209-.875-4.917-.833-1.083 0-2.042 0-2.833.042-.834-.042-1.417 0-1.709.041M80 45.542c-1.25-.667-2.583-1.125-4-1.417-1.542-.333-3.083-.542-4.667-.542-.833-.041-1.708.084-2.5.292-.541.125-1 .417-1.291.833-.209.334-.334.75-.334 1.125s.167.75.417 1.084c.375.458.875.833 1.417 1.125C70 48.542 71 49 72 49.417a30.2 30.2 0 0 1 6.417 3.041 9.7 9.7 0 0 1 3.291 3.459c.667 1.333 1 2.791.959 4.291a9.7 9.7 0 0 1-1.625 5.542 10.44 10.44 0 0 1-4.667 3.708c-2.042.875-4.542 1.334-7.542 1.334a28.7 28.7 0 0 1-5.666-.542 16.8 16.8 0 0 1-4.25-1.333c-.292-.167-.5-.459-.459-.792v-7.25c0-.125.042-.292.167-.375s.25-.042.375.042a17.8 17.8 0 0 0 5.167 2.041 19.4 19.4 0 0 0 4.916.625c1.584 0 2.709-.208 3.459-.583.666-.292 1.125-1 1.125-1.75 0-.583-.334-1.125-1-1.667-.667-.541-2.042-1.166-4.084-1.958a25.5 25.5 0 0 1-5.916-3 10.8 10.8 0 0 1-3.167-3.542 8.94 8.94 0 0 1-.958-4.25c0-1.791.5-3.5 1.416-5.041 1.042-1.667 2.584-3 4.375-3.834 1.959-1 4.417-1.458 7.375-1.458 1.709 0 3.459.125 5.167.375 1.25.167 2.458.5 3.583.958.167.042.334.209.417.375.042.167.083.334.083.5v6.792a.51.51 0 0 1-.208.417c-.375.083-.583.083-.75 0"/></svg>